<svg width="1567" height="415" viewBox="0 0 1567 415" fill="none" xmlns="http://www.w3.org/2000/svg">
<path d="M620.691 295.998H681.358C703.419 295.998 716.518 281.865 716.518 263.251C716.518 243.259 703.419 234.297 682.048 234.297H620.691V295.998ZM678.256 145.709H620.691V195.346H681.013C699.972 195.346 709.968 186.728 709.968 170.527C709.968 152.948 700.661 145.709 678.256 145.709ZM677.566 334.949H574.501V106.068H687.218C732.029 106.068 756.158 130.197 756.158 168.459C756.158 188.107 744.093 204.652 728.237 211.202C747.54 218.44 763.052 233.952 763.052 266.698C763.052 308.407 735.131 334.949 677.566 334.949ZM815.866 233.607H885.151C884.462 208.444 867.916 196.38 850.336 196.38C832.412 196.38 817.59 210.168 815.866 233.607ZM931.341 261.873H814.488C815.866 287.38 830.344 303.926 852.405 303.926C866.882 303.926 879.636 296.687 882.738 284.967H928.928C918.587 319.782 890.666 339.43 854.473 339.43C797.942 339.43 769.677 308.407 769.677 247.051C769.677 194.656 799.666 160.876 851.715 160.876C903.765 160.876 931.341 194.656 931.341 261.873ZM1144.69 334.949H1086.43L1018.53 231.884L993.018 257.047V334.949H945.794V106.068H993.018V199.137L1080.57 106.068H1142.62L1052.31 196.38L1144.69 334.949ZM1200.7 334.949H1155.89V165.357H1200.7V334.949ZM1200.7 145.019H1155.89V103.311H1200.7V145.019ZM1374.91 334.949H1329.75V232.228C1329.75 206.031 1322.17 198.793 1300.8 198.793C1277.36 198.793 1265.98 211.891 1265.98 237.744V334.949H1221.17V165.357H1263.92V190.175C1274.26 171.217 1291.49 160.876 1318.72 160.876C1351.13 160.876 1374.91 180.523 1374.91 217.406V334.949ZM1474.85 302.892C1496.22 302.892 1512.77 282.899 1512.77 254.289C1512.77 217.406 1500.01 199.137 1475.19 199.137C1449 199.137 1436.59 216.717 1436.59 251.532C1436.59 281.865 1452.44 302.892 1474.85 302.892ZM1555.16 334.949H1512.08L1511.73 314.267C1501.05 331.502 1485.19 339.43 1464.51 339.43C1421.76 339.43 1391.09 305.649 1391.09 248.429C1391.09 197.069 1416.94 160.876 1460.72 160.876C1481.74 160.876 1498.29 169.493 1511.04 187.417V103.311H1555.16V334.949Z" fill="#007CE0"/>
<ellipse cx="151.03" cy="71.3458" rx="42.5214" ry="42.4736" fill="#007CE0"/>
<ellipse cx="332.847" cy="71.3458" rx="42.5214" ry="42.4736" fill="#007CE0"/>
<path fill-rule="evenodd" clip-rule="evenodd" d="M1.00876 156.659C5.76823 221.027 31.6682 276.606 76.9432 319.608C114.157 354.952 167.153 379.847 214.544 384.247C222.174 384.956 224.723 384.738 224.723 383.376C224.723 381.256 236.119 261.069 237.193 251.858C237.592 248.434 238.283 242.716 238.726 239.151L239.532 232.669L248.623 231.797C253.623 231.318 274.869 229.943 295.836 228.742C395.15 223.054 432.375 218.553 464.851 208.305L476.517 204.623L478.906 192.542C481.347 180.186 484.18 156.405 484.225 147.871L484.25 143.111H242.129H0.00729942L1.00876 156.659ZM445.394 246.498C421.449 252.094 390.04 255.578 328.094 259.512C308.739 260.742 287.542 262.16 280.987 262.666L269.071 263.582L267.423 278.409C266.517 286.562 264.142 310.699 262.143 332.045C260.145 353.392 258.142 373.987 257.694 377.814L256.879 384.771L263.162 384.77C266.617 384.768 274.98 383.794 281.747 382.605C355.231 369.687 415.342 327.187 452.75 261.7C457.979 252.548 462.256 244.531 462.256 243.882C462.256 242.467 463.415 242.287 445.394 246.498Z" fill="#007CE0"/>
</svg>
